<?xml version="1.0"?>
<svg viewBox="0 0 300 300" xmlns="http://www.w3.org/2000/svg" xmlns:xlink="http://www.w3.org/1999/xlink">
<defs>
<radialGradient id="c" cx="151" cy="274" r="146" gradientTransform="matrix(1 0 0 .134 -1 237)" gradientUnits="userSpaceOnUse">
<stop stop-opacity=".462" offset="0"/>
<stop stop-opacity="0" offset="1"/>
</radialGradient>
<radialGradient id="a" cx="153" cy="148" r="127" gradientTransform="matrix(.964 0 0 .964 4.84 3.59)" gradientUnits="userSpaceOnUse">
<stop stop-color="#00ffb5" offset="0"/>
<stop stop-color="#1fad8c" offset="1"/>
</radialGradient>
</defs>
<linearGradient id="b" x1="158" x2="158" y1="290" y2="9.75" gradientTransform="matrix(.871 0 0 .871 19.1 17.4)" gradientUnits="userSpaceOnUse">
<stop stop-color="#fff" stop-opacity=".369" offset="0"/>
<stop stop-color="#fff" stop-opacity=".237" offset="1"/>
</linearGradient>
<ellipse cx="150" cy="274" rx="146" ry="19.6" fill="url(#c)"/>
<rect x="25.5" y="23.8" width="249" height="249" rx="13" fill="url(#a)" stroke="#053" stroke-width="4.5"/>
<rect x="29.7" y="28" width="241" height="241" rx="10" fill="none" stroke="url(#b)" stroke-width="4.5"/>
<g fill="#044">
<path id="d" d="m203 125c-.931 1.07-1.85 2.03-2.75 2.9-.908.861-1.76 1.62-2.55 2.27-.791.651-1.5 1.15-2.13 1.5-.628.35-1.1.523-1.43.523-.605 0-1.25-.408-1.92-1.22-.675-.814-1.44-1.69-2.3-2.66-.861-.954-1.86-1.84-3-2.66-1.14-.814-2.48-1.22-4.01-1.22-1.3 0-2.58.245-3.84.733s-2.38 1.17-3.39 2.02c-1 .861-1.81 1.91-2.45 3.15-.628 1.24-.943 2.6-.943 4.09 0 1.63.78 3.35 2.34 5.17s4.23 3.58 8 5.31c1.91.884 3.81 1.91 5.72 3.07 1.91 1.17 3.62 2.5 5.14 4.01 1.51 1.51 2.74 3.23 3.7 5.17.954 1.93 1.43 4.13 1.43 6.6 0 3.21-.826 6.23-2.48 9.05s-3.77 5.26-6.36 7.33c-2.58 2.08-5.46 3.7-8.62 4.88-3.17 1.19-6.26 1.78-9.29 1.78-2.18 0-4.35-.315-6.49-.943s-4.05-1.43-5.72-2.4c-1.67-.978-3.04-2.03-4.09-3.18-1.05-1.14-1.57-2.2-1.57-3.18 0-.512.28-1.26.838-2.23.558-.978 1.22-1.94 1.99-2.9.768-.954 1.55-1.79 2.34-2.51.791-.721 1.44-1.08 1.96-1.08.326 0 .663.291 1.01.873s.791 1.3 1.32 2.16c.535.861 1.18 1.8 1.92 2.83.745 1.02 1.67 1.97 2.8 2.83 1.11.861 2.44 1.58 3.94 2.16 1.51.582 3.29.873 5.34.873 1.63 0 3.18-.315 4.64-.943s2.74-1.46 3.84-2.51c1.09-1.05 1.96-2.28 2.58-3.7.628-1.42.943-2.94.943-4.58 0-1.81-.373-3.45-1.11-4.93-.745-1.46-1.74-2.8-2.97-3.98-1.24-1.19-2.67-2.27-4.29-3.24-1.63-.978-3.33-1.89-5.09-2.72-2.47-1.17-4.53-2.33-6.22-3.5-1.67-1.17-3.03-2.35-4.05-3.56s-1.76-2.49-2.2-3.84c-.442-1.36-.663-2.76-.663-4.26 0-2.93.721-5.6 2.16-8.03 1.44-2.43 3.3-4.5 5.58-6.25s4.83-3.09 7.65-4.05c2.82-.954 5.59-1.43 8.35-1.43 2.37 0 4.37.28 6.01.838 1.63.558 3.06 1.21 4.29 1.96 1.24.745 2.32 1.46 3.24 2.16.931.698 1.89 1.19 2.86 1.46z"/>
<path d="m118 86.1c-.978.698-2.02 1.45-3.15 2.27-1.11.815-2.21 1.56-3.28 2.23-1.07.675-2.06 1.24-2.97 1.67-.908.442-1.64.663-2.2.663-.605 0-1.21-.408-1.81-1.22-.605-.814-1.28-1.72-2.02-2.69-.745-.978-1.61-1.87-2.58-2.69-.978-.814-2.12-1.22-3.42-1.22-1.77 0-3.33.523-4.68 1.57-1.36 1.05-2.54 2.45-3.56 4.18-1.02 1.75-1.91 3.75-2.66 6.01-.745 2.26-1.38 4.6-1.89 7.01-.512 2.43-.943 4.82-1.29 7.19-.35 2.37-.616 4.53-.803 6.49l-.418 3.28h17.9l1.4 1.96c-.465.651-1.09 1.37-1.89 2.13-.791.768-1.63 1.5-2.51 2.2-.884.698-1.74 1.33-2.55 1.92-.815.582-1.45.989-1.92 1.22-.233-.651-.593-1.18-1.08-1.57-.488-.396-1.15-.71-1.99-.943-.838-.233-1.89-.396-3.15-.488-1.26-.0929-2.74-.14-4.47-.14h-.418l-5.03 43.4c-.605 5.12-1.64 10.1-3.1 14.9-1.46 4.78-3.3 9.22-5.52 13.3-2.21 4.12-4.76 7.82-7.65 11.1-2.88 3.28-6.05 5.97-9.5 8.06l-1.81-4.4c2.33-1.3 4.44-3.35 6.32-6.14 1.89-2.8 3.54-6.01 4.96-9.64s2.6-7.48 3.53-11.6c.931-4.08 1.61-8.02 2.02-11.8l5.44-47.2h-10.5l-1.05-2.16 7.05-4.12h5.23c.465-3.73 1.01-7.31 1.64-10.8.628-3.44 1.51-6.7 2.66-9.78 1.14-3.07 2.66-5.94 4.53-8.62 1.89-2.68 4.29-5.11 7.22-7.3 1.26-.884 2.47-1.73 3.63-2.51 1.17-.791 2.35-1.49 3.56-2.1 1.21-.605 2.46-1.07 3.74-1.4 1.28-.326 2.64-.488 4.09-.488 2.04 0 3.9.385 5.55 1.15 1.65.768 3.12 1.63 4.44 2.58 1.3.954 2.46 1.87 3.45 2.75 1 .885 1.85 1.44 2.55 1.67zm33 58.8c-.0798 16.1-8.89 32.2-23.4 39.6-6.8 3.8-16 3.06-21.6-2.48-6.83-6.56-8.34-16.7-7.75-25.8.452-10.1 4.59-20.1 12-27.1 5.33-5.19 11.9-9.86 19.6-10.4 6.47-.5 13.4 2.13 16.9 7.81 3.51 5.45 4.29 12.1 4.35 18.5zm-9.99 3.84c-.0382-6.83-1.06-14.8-6.68-19.3-5.54-4.28-14.4-3.41-18.8 2.18-5.84 6.86-7.31 16.3-7.41 25 .143 7.7 2.73 16.3 9.53 20.6 4.74 3.02 11.2 1.53 14.9-2.54 5.09-5.45 7.1-13 8.1-20.2.227-1.92.367-3.86.368-5.8z"/>
<use x="49.1" xlink:href="#d"/>
</g>
</svg>
